<mxfile host="app.diagrams.net" modified="2022-07-11T08:41:30.600Z" agent="5.0 (Windows NT 10.0; Win64; x64) AppleWebKit/537.36 (KHTML, like Gecko) Chrome/103.0.0.0 Safari/537.36" etag="NRnd-9P3P2GWfy4QjYzA" version="20.0.4" type="github">
  <diagram id="6a731a19-8d31-9384-78a2-239565b7b9f0" name="Page-1">
    <mxGraphModel dx="1422" dy="762" grid="1" gridSize="10" guides="1" tooltips="1" connect="1" arrows="1" fold="1" page="1" pageScale="1" pageWidth="1169" pageHeight="827" background="none" math="0" shadow="0">
      <root>
        <mxCell id="0" />
        <mxCell id="1" parent="0" />
        <mxCell id="1747" value="" style="edgeStyle=none;rounded=0;jumpStyle=none;html=1;shadow=0;labelBackgroundColor=none;startArrow=none;startFill=0;endArrow=classic;endFill=1;jettySize=auto;orthogonalLoop=1;strokeColor=#2F5B7C;strokeWidth=3;fontFamily=Helvetica;fontSize=16;fontColor=#23445D;spacing=5;" parent="1" source="1749" target="1760" edge="1">
          <mxGeometry relative="1" as="geometry" />
        </mxCell>
        <mxCell id="1749" value="developer" style="rounded=1;whiteSpace=wrap;html=1;shadow=0;labelBackgroundColor=none;strokeColor=none;strokeWidth=3;fillColor=#2F5B7C;fontFamily=Helvetica;fontSize=16;fontColor=#FFFFFF;align=center;fontStyle=1;spacing=5;arcSize=7;perimeterSpacing=2;" parent="1" vertex="1">
          <mxGeometry x="140" y="318" width="150" height="70" as="geometry" />
        </mxCell>
        <mxCell id="1758" value="" style="edgeStyle=none;rounded=0;jumpStyle=none;html=1;shadow=0;labelBackgroundColor=none;startArrow=none;startFill=0;endArrow=classic;endFill=1;jettySize=auto;orthogonalLoop=1;strokeColor=#1699D3;strokeWidth=3;fontFamily=Helvetica;fontSize=14;fontColor=#FFFFFF;spacing=5;entryX=0.448;entryY=1;entryDx=0;entryDy=0;exitX=0.448;exitY=0.015;exitDx=0;exitDy=0;entryPerimeter=0;exitPerimeter=0;" parent="1" source="1760" target="1762" edge="1">
          <mxGeometry relative="1" as="geometry">
            <mxPoint x="450" y="320" as="sourcePoint" />
            <mxPoint x="450" y="260" as="targetPoint" />
          </mxGeometry>
        </mxCell>
        <mxCell id="1760" value="本地个人分支" style="rounded=1;whiteSpace=wrap;html=1;shadow=0;labelBackgroundColor=none;strokeColor=#d6b656;strokeWidth=3;fillColor=#fff2cc;fontFamily=Helvetica;fontSize=14;align=center;spacing=5;fontStyle=1;arcSize=7;perimeterSpacing=2;" parent="1" vertex="1">
          <mxGeometry x="380" y="320" width="150" height="63" as="geometry" />
        </mxCell>
        <mxCell id="DgxcFz9JLEtHBifdvHop-1800" value="" style="edgeStyle=orthogonalEdgeStyle;rounded=0;orthogonalLoop=1;jettySize=auto;html=1;labelBorderColor=#FFD966;fontSize=14;fontColor=#000000;strokeColor=#1699D3;strokeWidth=3;startArrow=none;" edge="1" parent="1" source="DgxcFz9JLEtHBifdvHop-1801" target="DgxcFz9JLEtHBifdvHop-1799">
          <mxGeometry relative="1" as="geometry" />
        </mxCell>
        <mxCell id="1761" value="远程功能分支" style="rounded=1;whiteSpace=wrap;html=1;shadow=0;labelBackgroundColor=none;strokeColor=#BD7000;strokeWidth=3;fillColor=#f0a30a;fontFamily=Helvetica;fontSize=14;fontColor=#FFFFFF;align=center;spacing=5;arcSize=7;perimeterSpacing=2;" parent="1" vertex="1">
          <mxGeometry x="670" y="321.5" width="150" height="60" as="geometry" />
        </mxCell>
        <mxCell id="DgxcFz9JLEtHBifdvHop-1792" style="edgeStyle=orthogonalEdgeStyle;rounded=0;orthogonalLoop=1;jettySize=auto;html=1;labelBorderColor=#FFD966;fontSize=14;fontColor=#000000;strokeWidth=3;strokeColor=#1699D3;" edge="1" parent="1">
          <mxGeometry relative="1" as="geometry">
            <mxPoint x="748" y="321.5" as="targetPoint" />
            <mxPoint x="530" y="221.5" as="sourcePoint" />
          </mxGeometry>
        </mxCell>
        <mxCell id="DgxcFz9JLEtHBifdvHop-1793" value="merge-request" style="edgeLabel;html=1;align=center;verticalAlign=middle;resizable=0;points=[];fontSize=14;fontColor=#000000;" vertex="1" connectable="0" parent="DgxcFz9JLEtHBifdvHop-1792">
          <mxGeometry x="-0.1887" y="-1" relative="1" as="geometry">
            <mxPoint as="offset" />
          </mxGeometry>
        </mxCell>
        <mxCell id="1762" value="远程个人分支" style="rounded=1;whiteSpace=wrap;html=1;shadow=0;labelBackgroundColor=none;strokeColor=none;strokeWidth=3;fillColor=#64bbe2;fontFamily=Helvetica;fontSize=14;fontColor=#FFFFFF;align=center;spacing=5;arcSize=7;perimeterSpacing=2;" parent="1" vertex="1">
          <mxGeometry x="380" y="190" width="150" height="60" as="geometry" />
        </mxCell>
        <mxCell id="DgxcFz9JLEtHBifdvHop-1782" value="" style="edgeStyle=none;rounded=0;jumpStyle=none;html=1;shadow=0;labelBackgroundColor=none;startArrow=none;startFill=0;endArrow=classic;endFill=1;jettySize=auto;orthogonalLoop=1;strokeColor=#1699D3;strokeWidth=3;fontFamily=Helvetica;fontSize=14;fontColor=#FFFFFF;spacing=5;entryX=0.552;entryY=0.03;entryDx=0;entryDy=0;entryPerimeter=0;exitX=0.552;exitY=0.953;exitDx=0;exitDy=0;exitPerimeter=0;verticalAlign=middle;" edge="1" parent="1" source="1762" target="1760">
          <mxGeometry relative="1" as="geometry">
            <mxPoint x="470" y="260" as="sourcePoint" />
            <mxPoint x="460" y="330" as="targetPoint" />
          </mxGeometry>
        </mxCell>
        <mxCell id="DgxcFz9JLEtHBifdvHop-1786" value="pull" style="edgeLabel;html=1;align=center;verticalAlign=middle;resizable=0;points=[];" vertex="1" connectable="0" parent="DgxcFz9JLEtHBifdvHop-1782">
          <mxGeometry x="0.4166" y="2" relative="1" as="geometry">
            <mxPoint x="15" y="-20" as="offset" />
          </mxGeometry>
        </mxCell>
        <mxCell id="DgxcFz9JLEtHBifdvHop-1784" value="push" style="text;html=1;align=center;verticalAlign=middle;resizable=0;points=[];autosize=1;strokeColor=none;fillColor=none;" vertex="1" parent="1">
          <mxGeometry x="405" y="265" width="50" height="30" as="geometry" />
        </mxCell>
        <mxCell id="DgxcFz9JLEtHBifdvHop-1798" style="edgeStyle=orthogonalEdgeStyle;rounded=0;orthogonalLoop=1;jettySize=auto;html=1;entryX=0.5;entryY=1;entryDx=0;entryDy=0;labelBorderColor=#FFD966;fontSize=14;fontColor=#000000;strokeColor=#1699D3;strokeWidth=3;" edge="1" parent="1" source="DgxcFz9JLEtHBifdvHop-1795" target="1760">
          <mxGeometry relative="1" as="geometry" />
        </mxCell>
        <mxCell id="DgxcFz9JLEtHBifdvHop-1795" value="resolve&amp;nbsp;conflict" style="rounded=1;whiteSpace=wrap;html=1;shadow=0;labelBackgroundColor=none;strokeColor=none;strokeWidth=3;fillColor=#64bbe2;fontFamily=Helvetica;fontSize=14;fontColor=#FFFFFF;align=center;spacing=5;arcSize=7;perimeterSpacing=2;" vertex="1" parent="1">
          <mxGeometry x="670" y="660" width="150" height="60" as="geometry" />
        </mxCell>
        <mxCell id="DgxcFz9JLEtHBifdvHop-1803" value="yes" style="edgeStyle=orthogonalEdgeStyle;rounded=0;orthogonalLoop=1;jettySize=auto;html=1;labelBorderColor=#FFD966;fontSize=14;fontColor=#000000;strokeColor=#1699D3;strokeWidth=3;" edge="1" parent="1" source="DgxcFz9JLEtHBifdvHop-1799" target="DgxcFz9JLEtHBifdvHop-1795">
          <mxGeometry relative="1" as="geometry" />
        </mxCell>
        <mxCell id="DgxcFz9JLEtHBifdvHop-1807" style="edgeStyle=orthogonalEdgeStyle;rounded=0;orthogonalLoop=1;jettySize=auto;html=1;labelBorderColor=#FFD966;fontSize=14;fontColor=#000000;strokeColor=#1699D3;strokeWidth=3;" edge="1" parent="1" source="DgxcFz9JLEtHBifdvHop-1799">
          <mxGeometry relative="1" as="geometry">
            <mxPoint x="450" y="510" as="targetPoint" />
          </mxGeometry>
        </mxCell>
        <mxCell id="DgxcFz9JLEtHBifdvHop-1808" value="no" style="edgeLabel;html=1;align=center;verticalAlign=middle;resizable=0;points=[];fontSize=14;fontColor=#000000;" vertex="1" connectable="0" parent="DgxcFz9JLEtHBifdvHop-1807">
          <mxGeometry x="-0.1922" relative="1" as="geometry">
            <mxPoint as="offset" />
          </mxGeometry>
        </mxCell>
        <mxCell id="DgxcFz9JLEtHBifdvHop-1799" value="冲突?" style="rhombus;whiteSpace=wrap;html=1;fontSize=14;fillColor=#f0a30a;strokeColor=#BD7000;fontColor=#FFFFFF;rounded=1;shadow=0;labelBackgroundColor=none;strokeWidth=3;spacing=5;arcSize=7;" vertex="1" parent="1">
          <mxGeometry x="705" y="470" width="80" height="80" as="geometry" />
        </mxCell>
        <mxCell id="DgxcFz9JLEtHBifdvHop-1801" value="pull" style="text;html=1;align=center;verticalAlign=middle;resizable=0;points=[];autosize=1;strokeColor=none;fillColor=none;fontSize=14;fontColor=#000000;" vertex="1" parent="1">
          <mxGeometry x="720" y="409" width="50" height="30" as="geometry" />
        </mxCell>
        <mxCell id="DgxcFz9JLEtHBifdvHop-1802" value="" style="edgeStyle=orthogonalEdgeStyle;rounded=0;orthogonalLoop=1;jettySize=auto;html=1;labelBorderColor=#FFD966;fontSize=14;fontColor=#000000;strokeColor=#1699D3;strokeWidth=3;endArrow=none;" edge="1" parent="1" source="1761" target="DgxcFz9JLEtHBifdvHop-1801">
          <mxGeometry relative="1" as="geometry">
            <mxPoint x="745" y="383.5" as="sourcePoint" />
            <mxPoint x="745" y="480" as="targetPoint" />
          </mxGeometry>
        </mxCell>
      </root>
    </mxGraphModel>
  </diagram>
</mxfile>
